<?xml version="1.0" encoding="utf-8"?>
<!-- Generator: Adobe Illustrator 27.3.1, SVG Export Plug-In . SVG Version: 6.00 Build 0)  -->
<svg version="1.1" id="Layer_1" xmlns="http://www.w3.org/2000/svg" xmlns:xlink="http://www.w3.org/1999/xlink" x="0px" y="0px"
	 viewBox="0 0 678.74 213.79" enable-background="new 0 0 678.74 213.79" xml:space="preserve">
<path fill="#FBB040" fill-opacity="0.3" stroke="#000000" stroke-width="1.5" stroke-miterlimit="10" d="M217.48,43.48
	c46.21-56.5,144.47-39.55,198.85-12.64c24.29,12.02,78.19,38.69,79.89,86.78c1.58,44.7-42.67,87.19-82.76,90.8
	c-36.49,3.29-43.93-27.94-97.13-37.93c-56.56-10.63-82.21,18.28-105.17,0.57C183.85,150.01,185.57,82.5,217.48,43.48z"/>
<path fill="none" stroke="#F15A29" stroke-width="2" stroke-miterlimit="10" d="M344.13,8.48c4.05,8.26,1.7,57.96-6.9,92.67
	c-5.77,23.28-18.41,61.31-25.29,68.59"/>
<g>
	<defs>
		<rect id="SVGID_1_" x="212.6" y="138.71" width="22" height="25"/>
	</defs>
	<clipPath id="SVGID_00000030461120223665454440000013058236517901700515_">
		<use xlink:href="#SVGID_1_"  overflow="visible"/>
	</clipPath>
	
		<path opacity="0" clip-path="url(#SVGID_00000030461120223665454440000013058236517901700515_)" fill="none" stroke="#000001" stroke-width="1.000000e-06" stroke-miterlimit="10" d="
		M223.6,151.21"/>
	<path clip-path="url(#SVGID_00000030461120223665454440000013058236517901700515_)" fill="#FBAD30" d="M234.52,157.72h-0.85
		c-0.17,0.88-0.3,1.66-0.61,2.47c-0.17,0.54-0.27,0.81-2.24,0.81h-2.71c0.44-1.9,1.49-3.52,3.01-5.76c1.59-2.4,2.98-4.74,2.98-7.42
		c0-4.71-4.57-8.5-10.29-8.5c-5.82,0-10.33,3.86-10.33,8.5c0,2.67,1.39,5.01,2.98,7.42c1.49,2.24,2.57,3.86,3.01,5.76h-2.71
		c-1.96,0-2.07-0.27-2.24-0.78c-0.27-0.78-0.44-1.66-0.61-2.51h-0.85l1.12,5.49h5.42c0.75,0,0.85,0,0.85-0.71
		c0-2.37-1.05-5.35-1.83-7.52c-0.71-1.96-1.66-4.64-1.66-7.18c0-5.42,3.72-7.72,6.81-7.72c3.25,0,6.84,2.44,6.84,7.72
		c0,2.54-0.91,5.11-1.9,7.89c-0.51,1.42-1.59,4.47-1.59,6.81c0,0.71,0.1,0.71,0.88,0.71h5.38L234.52,157.72"/>
</g>
<g>
	<defs>
		<rect id="SVGID_00000136375738854204518910000000944796851260853941_" x="462.26" y="187.66" width="35" height="21"/>
	</defs>
	<clipPath id="SVGID_00000106139538897455460640000012710411377379661960_">
		<use xlink:href="#SVGID_00000136375738854204518910000000944796851260853941_"  overflow="visible"/>
	</clipPath>
	
		<path opacity="0" clip-path="url(#SVGID_00000106139538897455460640000012710411377379661960_)" fill="none" stroke="#000001" stroke-width="1.000000e-06" stroke-miterlimit="10" d="
		M479.76,198.16"/>
	<path clip-path="url(#SVGID_00000106139538897455460640000012710411377379661960_)" d="M467.79,207.79c-3.07,0-3.07-2.87-3.07-3.15
		c0-0.75,0.7-4.66,1.84-6.33c1.12-1.59,2.48-2.48,4.21-2.48c3.04,0,3.09,3.12,3.09,3.68C473.86,201.52,472.08,207.79,467.79,207.79
		 M474.37,198.51c-0.28-1.73-1.42-3.29-3.6-3.29c-1.7,0-3.51,0.45-5.69,2.62c-2.31,2.31-2.51,4.91-2.51,5.77
		c0,1.73,1.23,4.96,5.13,4.96c6.63,0,9.53-9.37,9.53-13.35c0-4.43-2.59-7.22-6.02-7.22c-4.04,0-5.33,3.62-5.33,4.4
		c0,0.39,0.22,0.98,1.06,0.98c0.92,0,1.51-0.84,1.51-1.48c0-0.98-0.87-0.98-1.31-0.98c1.23-2.06,3.21-2.23,4.01-2.23
		c2.04,0,3.99,1.45,3.99,5.05c0,1.09-0.17,2.51-0.75,4.77H474.37z"/>
	<path clip-path="url(#SVGID_00000106139538897455460640000012710411377379661960_)" d="M496.73,203.44h-0.7
		c-0.14,0.72-0.25,1.37-0.5,2.04c-0.14,0.45-0.22,0.67-1.84,0.67h-2.23c0.36-1.56,1.23-2.9,2.48-4.74c1.31-1.98,2.45-3.9,2.45-6.11
		c0-3.88-3.76-7-8.48-7c-4.8,0-8.5,3.18-8.5,7c0,2.2,1.14,4.13,2.45,6.11c1.23,1.84,2.12,3.18,2.48,4.74h-2.23
		c-1.62,0-1.7-0.22-1.84-0.64c-0.22-0.64-0.36-1.37-0.5-2.06h-0.7l0.92,4.52h4.46c0.61,0,0.7,0,0.7-0.59c0-1.95-0.86-4.4-1.51-6.19
		c-0.58-1.62-1.37-3.82-1.37-5.91c0-4.46,3.07-6.36,5.6-6.36c2.68,0,5.63,2.01,5.63,6.36c0,2.09-0.75,4.21-1.56,6.5
		c-0.42,1.17-1.31,3.68-1.31,5.6c0,0.59,0.08,0.59,0.73,0.59h4.43L496.73,203.44"/>
</g>
<g>
	<defs>
		<rect id="SVGID_00000058587314137951133120000005745496830979362736_" x="341.38" y="93.75" width="42" height="21"/>
	</defs>
	<clipPath id="SVGID_00000022543752094984954560000006605864184355534483_">
		<use xlink:href="#SVGID_00000058587314137951133120000005745496830979362736_"  overflow="visible"/>
	</clipPath>
	
		<path opacity="0" clip-path="url(#SVGID_00000022543752094984954560000006605864184355534483_)" fill="none" stroke="#000001" stroke-width="1.000000e-06" stroke-miterlimit="10" d="
		M362.38,104.25"/>
	<path clip-path="url(#SVGID_00000022543752094984954560000006605864184355534483_)" fill="#F05423" d="M351.69,96.88l7.5,15.05
		h-15.03L351.69,96.88z M353.3,94.59c-0.2-0.36-0.25-0.5-0.73-0.5c-0.47,0-0.53,0.14-0.72,0.5l-9.42,18.9
		c-0.14,0.25-0.14,0.31-0.14,0.33c0,0.22,0.17,0.22,0.61,0.22h19.35c0.45,0,0.61,0,0.61-0.22c0-0.03,0-0.08-0.14-0.33L353.3,94.59z"
		/>
	<path clip-path="url(#SVGID_00000022543752094984954560000006605864184355534483_)" fill="#F05423" d="M383.05,109.54h-0.7
		c-0.14,0.72-0.25,1.37-0.5,2.04c-0.14,0.45-0.22,0.67-1.84,0.67h-2.23c0.36-1.56,1.23-2.9,2.48-4.74c1.31-1.98,2.45-3.9,2.45-6.11
		c0-3.88-3.76-7-8.48-7c-4.8,0-8.5,3.18-8.5,7c0,2.2,1.14,4.13,2.45,6.11c1.23,1.84,2.12,3.18,2.48,4.74h-2.23
		c-1.62,0-1.7-0.22-1.84-0.64c-0.22-0.64-0.36-1.37-0.5-2.06h-0.7l0.92,4.52h4.46c0.61,0,0.7,0,0.7-0.59c0-1.95-0.86-4.4-1.51-6.19
		c-0.58-1.62-1.37-3.82-1.37-5.91c0-4.46,3.07-6.36,5.6-6.36c2.68,0,5.63,2.01,5.63,6.36c0,2.09-0.75,4.21-1.56,6.5
		c-0.42,1.17-1.31,3.68-1.31,5.6c0,0.59,0.08,0.59,0.73,0.59h4.43L383.05,109.54"/>
</g>
</svg>
