<?xml version="1.0" encoding="utf-8"?>
<!-- Generator: Adobe Illustrator 27.3.1, SVG Export Plug-In . SVG Version: 6.00 Build 0)  -->
<svg version="1.1" id="Layer_1" xmlns="http://www.w3.org/2000/svg" xmlns:xlink="http://www.w3.org/1999/xlink" x="0px" y="0px"
	 viewBox="0 0 678.74 213.79" enable-background="new 0 0 678.74 213.79" xml:space="preserve">
<path fill="#FAAF40" fill-opacity="0.3" stroke="#231F20" stroke-width="1.5" stroke-miterlimit="10" d="M217.48,43.48
	c46.21-56.5,144.47-39.55,198.85-12.64c24.29,12.02,78.19,38.69,79.89,86.78c1.58,44.7-42.67,87.19-82.76,90.8
	c-36.49,3.29-43.93-27.94-97.13-37.93c-56.56-10.63-82.21,18.28-105.17,0.57C183.85,150.01,185.57,82.5,217.48,43.48z"/>
<path fill="none" stroke="#F05A28" stroke-width="2" stroke-miterlimit="10" d="M344.13,8.48c4.05,8.26,1.7,57.96-6.9,92.67
	c-5.77,23.28-18.41,61.31-25.29,68.59"/>
<g>
	<defs>
		<rect id="SVGID_1_" x="461.26" y="189.05" width="35" height="21"/>
	</defs>
	<clipPath id="SVGID_00000065792509805471597170000014160871766765368998_">
		<use xlink:href="#SVGID_1_"  overflow="visible"/>
	</clipPath>
	
		<path opacity="0" clip-path="url(#SVGID_00000065792509805471597170000014160871766765368998_)" fill="none" stroke="#000001" stroke-width="1.000000e-06" stroke-miterlimit="10" d="
		M478.76,199.55"/>
	<path clip-path="url(#SVGID_00000065792509805471597170000014160871766765368998_)" d="M466.79,209.18c-3.07,0-3.07-2.87-3.07-3.15
		c0-0.75,0.7-4.66,1.84-6.33c1.12-1.59,2.48-2.48,4.21-2.48c3.04,0,3.09,3.12,3.09,3.68C472.86,202.91,471.08,209.18,466.79,209.18
		 M473.37,199.9c-0.28-1.73-1.42-3.29-3.6-3.29c-1.7,0-3.51,0.45-5.69,2.62c-2.31,2.31-2.51,4.91-2.51,5.77
		c0,1.73,1.23,4.96,5.13,4.96c6.63,0,9.53-9.37,9.53-13.35c0-4.43-2.59-7.22-6.02-7.22c-4.04,0-5.33,3.62-5.33,4.4
		c0,0.39,0.22,0.98,1.06,0.98c0.92,0,1.51-0.84,1.51-1.48c0-0.98-0.87-0.98-1.31-0.98c1.23-2.06,3.21-2.23,4.01-2.23
		c2.04,0,3.99,1.45,3.99,5.05c0,1.09-0.17,2.51-0.75,4.77H473.37z"/>
	<path clip-path="url(#SVGID_00000065792509805471597170000014160871766765368998_)" d="M495.73,204.83h-0.7
		c-0.14,0.73-0.25,1.37-0.5,2.04c-0.14,0.45-0.22,0.67-1.84,0.67h-2.23c0.36-1.56,1.23-2.9,2.48-4.74c1.31-1.98,2.45-3.9,2.45-6.11
		c0-3.88-3.76-7-8.48-7c-4.8,0-8.5,3.18-8.5,7c0,2.2,1.14,4.13,2.45,6.11c1.23,1.84,2.12,3.18,2.48,4.74h-2.23
		c-1.62,0-1.7-0.22-1.84-0.64c-0.22-0.64-0.36-1.37-0.5-2.06h-0.7l0.92,4.52h4.46c0.61,0,0.7,0,0.7-0.59c0-1.95-0.86-4.4-1.51-6.19
		c-0.58-1.62-1.37-3.82-1.37-5.91c0-4.46,3.07-6.36,5.6-6.36c2.68,0,5.63,2.01,5.63,6.36c0,2.09-0.75,4.21-1.56,6.5
		c-0.42,1.17-1.31,3.68-1.31,5.6c0,0.59,0.08,0.59,0.73,0.59h4.43L495.73,204.83"/>
</g>
<g>
	<defs>
		<rect id="SVGID_00000132080314531994229740000015905384786415673001_" x="329" y="140.71" width="42" height="21"/>
	</defs>
	<clipPath id="SVGID_00000109722015194112899350000003284788216025698996_">
		<use xlink:href="#SVGID_00000132080314531994229740000015905384786415673001_"  overflow="visible"/>
	</clipPath>
	
		<path opacity="0" clip-path="url(#SVGID_00000109722015194112899350000003284788216025698996_)" fill="none" stroke="#000001" stroke-width="1.000000e-06" stroke-miterlimit="10" d="
		M350,151.21"/>
	<path clip-path="url(#SVGID_00000109722015194112899350000003284788216025698996_)" fill="#EF5423" d="M339.31,143.83l7.5,15.05
		h-15.03L339.31,143.83z M340.93,141.55c-0.2-0.36-0.25-0.5-0.72-0.5c-0.48,0-0.53,0.14-0.73,0.5l-9.42,18.9
		c-0.14,0.25-0.14,0.31-0.14,0.33c0,0.22,0.17,0.22,0.61,0.22h19.35c0.45,0,0.61,0,0.61-0.22c0-0.03,0-0.08-0.14-0.33L340.93,141.55
		z"/>
	<path clip-path="url(#SVGID_00000109722015194112899350000003284788216025698996_)" fill="#EF5423" d="M370.68,156.49h-0.7
		c-0.14,0.73-0.25,1.37-0.5,2.04c-0.14,0.45-0.22,0.67-1.84,0.67h-2.23c0.36-1.56,1.23-2.9,2.48-4.74c1.31-1.98,2.45-3.9,2.45-6.11
		c0-3.88-3.76-7-8.48-7c-4.8,0-8.5,3.18-8.5,7c0,2.2,1.14,4.13,2.45,6.11c1.23,1.84,2.12,3.18,2.48,4.74h-2.23
		c-1.62,0-1.7-0.22-1.84-0.64c-0.22-0.64-0.36-1.37-0.5-2.06h-0.7l0.92,4.52h4.46c0.61,0,0.7,0,0.7-0.59c0-1.95-0.86-4.4-1.51-6.19
		c-0.58-1.62-1.37-3.82-1.37-5.91c0-4.46,3.07-6.36,5.6-6.36c2.68,0,5.63,2.01,5.63,6.36c0,2.09-0.75,4.21-1.56,6.5
		c-0.42,1.17-1.31,3.68-1.31,5.6c0,0.59,0.08,0.59,0.72,0.59h4.43L370.68,156.49"/>
</g>
<g>
	<g>
		<line fill="none" stroke="#BBBDBF" stroke-width="1.5" stroke-miterlimit="10" x1="273.43" y1="60.83" x2="275.42" y2="61.04"/>
		
			<line fill="none" stroke="#BBBDBF" stroke-width="1.5" stroke-miterlimit="10" stroke-dasharray="3.8911,3.8911" x1="279.29" y1="61.43" x2="339.29" y2="67.57"/>
		<line fill="none" stroke="#BBBDBF" stroke-width="1.5" stroke-miterlimit="10" x1="341.22" y1="67.77" x2="343.21" y2="67.97"/>
	</g>
</g>
<circle fill="#231F20" stroke="#231F20" stroke-miterlimit="10" cx="343.23" cy="67.97" r="2.56"/>
<g>
	<g>
		<line fill="none" stroke="#231F20" stroke-width="1.5" stroke-miterlimit="10" x1="343.2" y1="67.97" x2="369.62" y2="70.67"/>
		<g>
			<polygon fill="#231F20" points="380.15,71.75 364.68,76.3 368.83,70.59 365.93,64.17 			"/>
		</g>
	</g>
</g>
<g>
	<defs>
		<rect id="SVGID_00000080180971403895682400000017693335485160996514_" x="326.82" y="50.13" width="15" height="12"/>
	</defs>
	<clipPath id="SVGID_00000039823388714634568900000000105901713306852766_">
		<use xlink:href="#SVGID_00000080180971403895682400000017693335485160996514_"  overflow="visible"/>
	</clipPath>
	
		<path opacity="0" clip-path="url(#SVGID_00000039823388714634568900000000105901713306852766_)" fill="none" stroke="#000000" stroke-width="1.000000e-06" stroke-miterlimit="10" d="
		M334.32,56.13"/>
	<path clip-path="url(#SVGID_00000039823388714634568900000000105901713306852766_)" d="M339.43,52.15
		c-0.86,0.24-1.29,1.05-1.29,1.65c0,0.53,0.41,1.1,1.19,1.1c0.84,0,1.72-0.69,1.72-1.86c0-1.27-1.27-2.1-2.73-2.1
		c-1.36,0-2.25,1.03-2.56,1.46c-0.6-1-1.94-1.46-3.3-1.46c-3.01,0-4.64,2.94-4.64,3.73c0,0.33,0.36,0.33,0.57,0.33
		c0.29,0,0.45,0,0.55-0.31c0.69-2.17,2.41-2.89,3.39-2.89c0.91,0,1.34,0.43,1.34,1.19c0,0.45-0.33,1.77-0.55,2.63l-0.81,3.27
		c-0.36,1.46-1.22,2.18-2.03,2.18c-0.12,0-0.67,0-1.15-0.36c0.86-0.24,1.29-1.05,1.29-1.65c0-0.52-0.41-1.1-1.2-1.1
		c-0.84,0-1.72,0.69-1.72,1.86c0,1.27,1.27,2.1,2.73,2.1c1.36,0,2.25-1.03,2.56-1.46c0.6,1,1.94,1.46,3.3,1.46
		c3.01,0,4.64-2.94,4.64-3.73c0-0.34-0.36-0.34-0.57-0.34c-0.29,0-0.45,0-0.55,0.31c-0.69,2.18-2.41,2.89-3.39,2.89
		c-0.91,0-1.34-0.43-1.34-1.2c0-0.5,0.31-1.77,0.52-2.65c0.17-0.62,0.72-2.87,0.84-3.25c0.36-1.43,1.2-2.17,2.03-2.17
		C338.4,51.79,338.95,51.79,339.43,52.15"/>
</g>
<g>
	<defs>
		<rect id="SVGID_00000008859808130669645400000018329975187287213959_" x="351.76" y="78.33" width="49" height="25"/>
	</defs>
	<clipPath id="SVGID_00000067924158192472803480000006276444859868159641_">
		<use xlink:href="#SVGID_00000008859808130669645400000018329975187287213959_"  overflow="visible"/>
	</clipPath>
	
		<path opacity="0" clip-path="url(#SVGID_00000067924158192472803480000006276444859868159641_)" fill="none" stroke="#000000" stroke-width="1.000000e-06" stroke-miterlimit="10" d="
		M376.26,90.83"/>
	<path clip-path="url(#SVGID_00000067924158192472803480000006276444859868159641_)" d="M358.15,87.74
		c-0.33-1.19-1.65-1.82-2.94-1.82c-0.88,0-1.55,0.5-2.08,1.36c-0.6,0.96-0.91,2.25-0.91,2.37c0,0.33,0.36,0.33,0.57,0.33
		c0.26,0,0.36,0,0.48-0.12c0.05-0.05,0.05-0.1,0.19-0.69c0.48-1.86,1-2.39,1.62-2.39c0.36,0,0.55,0.24,0.55,0.88
		c0,0.41-0.1,0.79-0.33,1.74c-0.17,0.67-0.41,1.62-0.52,2.15l-0.86,3.35c-0.07,0.33-0.19,0.79-0.19,0.95c0,0.5,0.38,1.05,1.12,1.05
		c1.24,0,1.53-1.1,1.7-1.82c0.24-0.88,0.43-1.65,0.67-2.68c0.1-0.31,0.69-2.77,0.74-2.84c0.02-0.14,0.69-1.22,1.48-1.86
		c0.67-0.53,1.46-0.93,2.46-0.93c0.62,0,1.2,0.24,1.2,1.41c0,1.36-1.05,4.16-1.5,5.35c-0.26,0.65-0.34,0.81-0.34,1.22
		c0,1.39,1.39,2.15,2.7,2.15c2.53,0,3.73-3.25,3.73-3.73c0-0.34-0.36-0.34-0.58-0.34c-0.29,0-0.45,0-0.55,0.31
		c-0.79,2.65-2.08,2.89-2.46,2.89c-0.17,0-0.41,0-0.41-0.5c0-0.55,0.24-1.15,0.48-1.75c0.38-0.98,1.48-3.77,1.48-5.11
		c0-2.2-1.84-2.77-3.56-2.77C361.6,85.92,359.85,85.92,358.15,87.74"/>
	<path clip-path="url(#SVGID_00000067924158192472803480000006276444859868159641_)" d="M376.47,102.46c0-0.07,0-0.12-0.41-0.53
		c-2.99-3.01-3.75-7.53-3.75-11.18c0-4.16,0.91-8.32,3.85-11.3c0.31-0.29,0.31-0.34,0.31-0.41c0-0.17-0.1-0.24-0.24-0.24
		c-0.24,0-2.39,1.62-3.8,4.66c-1.22,2.63-1.51,5.28-1.51,7.29c0,1.86,0.26,4.75,1.58,7.45c1.43,2.94,3.49,4.49,3.73,4.49
		C376.38,102.7,376.47,102.63,376.47,102.46"/>
	<path clip-path="url(#SVGID_00000067924158192472803480000006276444859868159641_)" d="M390.67,87.14
		c-0.86,0.24-1.29,1.05-1.29,1.65c0,0.53,0.41,1.1,1.19,1.1c0.84,0,1.72-0.69,1.72-1.86c0-1.27-1.27-2.1-2.73-2.1
		c-1.36,0-2.25,1.03-2.56,1.46c-0.6-1-1.94-1.46-3.3-1.46c-3.01,0-4.64,2.94-4.64,3.73c0,0.33,0.36,0.33,0.57,0.33
		c0.29,0,0.45,0,0.55-0.31c0.69-2.17,2.41-2.89,3.39-2.89c0.91,0,1.34,0.43,1.34,1.19c0,0.45-0.33,1.77-0.55,2.63l-0.81,3.27
		c-0.36,1.46-1.22,2.17-2.03,2.17c-0.12,0-0.67,0-1.15-0.36c0.86-0.24,1.29-1.05,1.29-1.65c0-0.53-0.41-1.1-1.2-1.1
		c-0.84,0-1.72,0.69-1.72,1.86c0,1.27,1.27,2.1,2.72,2.1c1.36,0,2.25-1.03,2.56-1.46c0.6,1,1.94,1.46,3.3,1.46
		c3.01,0,4.64-2.94,4.64-3.73c0-0.34-0.36-0.34-0.57-0.34c-0.29,0-0.45,0-0.55,0.31c-0.69,2.17-2.41,2.89-3.39,2.89
		c-0.91,0-1.34-0.43-1.34-1.2c0-0.5,0.31-1.77,0.52-2.65c0.17-0.62,0.72-2.87,0.84-3.25c0.36-1.43,1.2-2.17,2.03-2.17
		C389.64,86.78,390.19,86.78,390.67,87.14"/>
	<path clip-path="url(#SVGID_00000067924158192472803480000006276444859868159641_)" d="M400.47,90.75c0-1.86-0.26-4.76-1.58-7.46
		c-1.43-2.94-3.49-4.49-3.73-4.49c-0.14,0-0.24,0.1-0.24,0.24c0,0.07,0,0.12,0.45,0.55c2.34,2.37,3.7,6.17,3.7,11.16
		c0,4.09-0.88,8.29-3.85,11.3c-0.31,0.29-0.31,0.33-0.31,0.41c0,0.14,0.1,0.24,0.24,0.24c0.24,0,2.39-1.62,3.8-4.66
		C400.18,95.41,400.47,92.76,400.47,90.75"/>
</g>
<g>
	<g>
		<line fill="none" stroke="#BBBDBF" stroke-width="1.5" stroke-miterlimit="10" x1="380.22" y1="71.76" x2="382.21" y2="71.96"/>
		
			<line fill="none" stroke="#BBBDBF" stroke-width="1.5" stroke-miterlimit="10" stroke-dasharray="3.6271,3.6271" x1="385.82" y1="72.33" x2="412.88" y2="75.1"/>
		<line fill="none" stroke="#BBBDBF" stroke-width="1.5" stroke-miterlimit="10" x1="414.69" y1="75.28" x2="416.68" y2="75.49"/>
	</g>
</g>
<g>
	<defs>
		
			<rect id="SVGID_00000085218766754890367240000016284534382164845726_" x="273.72" y="50.82" transform="matrix(0.1018 -0.9948 0.9948 0.1018 174.999 362.463)" width="29" height="67"/>
	</defs>
	<clipPath id="SVGID_00000072998636683242872760000011304683708880202389_">
		<use xlink:href="#SVGID_00000085218766754890367240000016284534382164845726_"  overflow="visible"/>
	</clipPath>
	
		<path opacity="0" clip-path="url(#SVGID_00000072998636683242872760000011304683708880202389_)" fill="none" stroke="#000000" stroke-width="1.000000e-06" stroke-miterlimit="10" d="
		M288.22,84.32"/>
	<path clip-path="url(#SVGID_00000072998636683242872760000011304683708880202389_)" fill="#A7A8AC" d="M269.39,78.2
		c-1.03,0.17-1.62,1.07-1.69,1.76c-0.06,0.61,0.34,1.32,1.26,1.42c0.97,0.1,2.08-0.6,2.22-1.96c0.15-1.47-1.22-2.59-2.91-2.76
		c-1.58-0.16-2.73,0.93-3.14,1.39c-0.57-1.24-2.07-1.92-3.65-2.08c-3.5-0.36-5.73,2.86-5.82,3.78c-0.04,0.39,0.38,0.43,0.63,0.46
		c0.33,0.03,0.53,0.05,0.68-0.3c1.06-2.44,3.14-3.07,4.28-2.95c1.05,0.11,1.5,0.66,1.41,1.55c-0.05,0.53-0.6,2.01-0.95,2.98
		l-1.33,3.7c-0.59,1.65-1.67,2.38-2.61,2.28c-0.14-0.01-0.78-0.08-1.29-0.55c1.03-0.18,1.62-1.07,1.69-1.76
		c0.06-0.61-0.34-1.32-1.26-1.42c-0.97-0.1-2.08,0.6-2.22,1.96c-0.15,1.47,1.22,2.59,2.91,2.76c1.58,0.16,2.73-0.93,3.14-1.39
		c0.57,1.24,2.07,1.92,3.66,2.08c3.49,0.36,5.73-2.86,5.82-3.78c0.04-0.39-0.38-0.43-0.63-0.46c-0.33-0.03-0.53-0.05-0.67,0.3
		c-1.06,2.44-3.15,3.07-4.28,2.95c-1.05-0.11-1.5-0.66-1.41-1.55c0.06-0.58,0.57-2.01,0.92-3.02c0.27-0.7,1.17-3.24,1.36-3.67
		c0.59-1.62,1.64-2.38,2.61-2.28C268.24,77.66,268.87,77.72,269.39,78.2"/>
	<path clip-path="url(#SVGID_00000072998636683242872760000011304683708880202389_)" fill="#A7A8AC" d="M281.71,82.06
		c0.03-0.29,0.08-0.76-0.39-0.8c-0.48-0.05-0.53,0.4-0.56,0.71l-1.2,11.77l-5.93-0.61c-0.29-0.03-0.78-0.08-0.82,0.39
		c-0.05,0.48,0.4,0.53,0.73,0.56l12.8,1.31c0.31,0.03,0.78,0.08,0.82-0.39c0.05-0.48-0.4-0.53-0.73-0.56l-5.93-0.61L281.71,82.06"/>
	<path clip-path="url(#SVGID_00000072998636683242872760000011304683708880202389_)" fill="#A7A8AC" d="M298.89,99.18
		c0.01-0.08,0.01-0.14-0.41-0.66c-3.11-3.85-3.46-9.18-3.03-13.43c0.49-4.82,2.04-9.54,5.81-12.66c0.39-0.3,0.4-0.35,0.41-0.44
		c0.02-0.19-0.08-0.29-0.25-0.3c-0.28-0.03-2.97,1.6-4.96,4.96c-1.73,2.91-2.38,5.95-2.61,8.28c-0.22,2.16-0.26,5.55,0.95,8.84
		c1.32,3.58,3.52,5.63,3.79,5.66C298.75,99.45,298.87,99.37,298.89,99.18"/>
	<path clip-path="url(#SVGID_00000072998636683242872760000011304683708880202389_)" fill="#A7A8AC" d="M310.04,87.26
		c0.44,0.05,0.94,0.1,0.99-0.38c0.04-0.39-0.29-0.42-0.77-0.47l-4.49-0.46c0.91-2.29,2.62-3.74,5.15-3.48l0.86,0.09
		c0.47,0.05,0.92,0.09,0.96-0.38c0.04-0.39-0.32-0.43-0.79-0.47l-0.97-0.1c-3.6-0.37-7.6,2.02-8.04,6.27
		c-0.31,3.05,1.54,5.45,4.48,5.75c1.8,0.18,3.72-0.74,3.75-1.05c0.01-0.08,0.01-0.39-0.24-0.42c-0.05-0.01-0.11-0.01-0.38,0.13
		c-0.92,0.47-1.99,0.83-3.02,0.73c-1.61-0.16-2.88-1.47-2.63-3.91c0.1-0.97,0.43-2,0.55-2.33L310.04,87.26"/>
	<path clip-path="url(#SVGID_00000072998636683242872760000011304683708880202389_)" fill="#A7A8AC" d="M321.2,87.73
		c0.22-2.16,0.26-5.55-0.95-8.84c-1.32-3.58-3.52-5.63-3.79-5.66c-0.17-0.02-0.29,0.08-0.3,0.25c-0.01,0.08-0.01,0.14,0.46,0.69
		c2.44,3.02,3.57,7.59,2.97,13.39c-0.49,4.74-2.01,9.52-5.81,12.66c-0.39,0.3-0.4,0.35-0.41,0.43c-0.02,0.17,0.08,0.29,0.25,0.31
		c0.28,0.03,2.97-1.6,4.96-4.96C320.31,93.1,320.96,90.06,321.2,87.73"/>
</g>
</svg>
